<?xml version="1.0" encoding="UTF-8"?>
<svg xmlns="http://www.w3.org/2000/svg" xmlns:xlink="http://www.w3.org/1999/xlink" width="40px" height="40px" viewBox="0 0 40 40" version="1.1">
<g id="surface1">
<path style=" stroke:none;fill-rule:evenodd;fill:rgb(94.117647%,83.92157%,71.764708%);fill-opacity:1;" d="M 29.988281 31.484375 L 26.515625 32.003906 L 21.828125 32.523438 L 18.785156 32.613281 L 15.835938 32.523438 L 13.574219 31.832031 L 11.578125 29.660156 L 10.015625 25.230469 L 9.667969 24.273438 L 7.582031 23.582031 L 6.367188 21.582031 L 5.5 18.714844 L 6.453125 16.199219 L 8.710938 15.417969 L 10.535156 16.285156 L 11.40625 18.195312 L 12.445312 18.023438 L 12.792969 17.585938 L 12.445312 15.589844 L 12.359375 13.070312 L 12.882812 9.597656 L 12.859375 7.613281 L 14.445312 5.082031 L 17.222656 3.085938 L 22.085938 1 L 27.472656 1.78125 L 32.160156 5.167969 L 34.332031 8.644531 L 35.722656 11.160156 L 36.070312 17.414062 L 35.027344 22.796875 L 33.117188 27.574219 L 31.292969 30.09375 "/>
<path style=" stroke:none;fill-rule:evenodd;fill:rgb(20%,31.37255%,38.039216%);fill-opacity:1;" d="M 27.039062 46.507812 L 14.617188 47.027344 L 14.617188 49.113281 L 15.660156 56.40625 L 15.140625 57.015625 L 6.453125 54.0625 L 5.847656 53.019531 L 4.976562 43.207031 L 2.980469 37.300781 L 2.546875 35.914062 L 9.496094 31.136719 L 11.664062 30.265625 L 13.574219 32.613281 L 15.226562 34.089844 L 17.136719 34.695312 L 18.003906 34.957031 L 19.046875 39.472656 L 19.828125 40.429688 L 21.828125 39.734375 L 20.4375 42.425781 L 27.992188 45.984375 L 27.039062 46.507812 "/>
<path style=" stroke:none;fill-rule:evenodd;fill:rgb(42.745098%,41.960785%,42.745098%);fill-opacity:1;" d="M 6.453125 16.199219 L 8.710938 15.417969 L 10.535156 16.285156 L 11.40625 18.195312 L 12.445312 18.023438 L 12.707031 16.980469 L 12.1875 14.984375 L 12.707031 10.207031 L 12.273438 7.601562 L 13.835938 5.777344 L 17.222656 3.085938 L 16.269531 1.78125 L 11.492188 4.125 L 9.496094 5.691406 L 8.367188 8.121094 L 6.628906 10.464844 L 6.105469 13.246094 L 6.453125 16.199219 "/>
<path style=" stroke:none;fill-rule:evenodd;fill:rgb(86.274511%,85.09804%,84.705883%);fill-opacity:1;" d="M 10.015625 8.035156 C 10.015625 8.035156 11.316406 4.820312 16.527344 3.257812 C 21.738281 1.695312 16.789062 2.128906 16.789062 2.128906 L 11.144531 4.300781 L 8.972656 6.472656 L 8.019531 8.207031 L 10.015625 8.035156 "/>
<path style=" stroke:none;fill-rule:evenodd;fill:rgb(86.274511%,85.09804%,84.705883%);fill-opacity:1;" d="M 7.410156 15.589844 C 7.410156 15.589844 5.585938 9.511719 12.535156 8.644531 L 12.273438 7.601562 L 7.496094 8.730469 L 6.105469 13.246094 L 6.453125 16.199219 L 7.410156 15.589844 "/>
<path style=" stroke:none;fill-rule:evenodd;fill:rgb(96.862745%,89.411765%,80.392158%);fill-opacity:1;" d="M 10.1875 23.667969 L 11.328125 22.566406 C 11.328125 22.566406 11.839844 22.625 11.925781 23.234375 C 12.011719 23.839844 12.273438 29.3125 16.007812 32.265625 C 16.347656 32.535156 13.230469 31.832031 13.230469 31.832031 L 10.449219 27.488281 "/>
<path style=" stroke:none;fill-rule:evenodd;fill:rgb(96.862745%,89.411765%,80.392158%);fill-opacity:1;" d="M 26.167969 22.015625 C 26.167969 22.015625 26.371094 19.382812 27.082031 19.585938 C 27.789062 19.789062 27.789062 20.5 27.789062 20.5 C 27.789062 20.5 26.066406 21.613281 26.167969 22.015625 "/>
<path style=" stroke:none;fill-rule:nonzero;fill:rgb(96.862745%,89.411765%,80.392158%);fill-opacity:1;" d="M 33.375 12.378906 C 33.375 12.378906 31.945312 12.679688 31.8125 13.941406 C 31.683594 15.203125 33.375 14.199219 33.636719 14.113281 "/>
<path style=" stroke:none;fill-rule:nonzero;fill:rgb(96.862745%,89.411765%,80.392158%);fill-opacity:1;" d="M 22.867188 12.464844 C 22.867188 12.464844 20.957031 12.726562 20.957031 13.941406 C 20.957031 15.15625 23.128906 15.070312 23.738281 14.546875 "/>
<path style=" stroke:none;fill-rule:evenodd;fill:rgb(96.862745%,89.411765%,80.392158%);fill-opacity:1;" d="M 11.058594 18.109375 C 11.058594 18.109375 7.757812 16.113281 7.410156 18.023438 C 7.0625 19.933594 6.28125 21.324219 7.929688 23.320312 L 6.800781 22.972656 L 5.761719 20.28125 L 5.414062 17.675781 L 7.410156 15.589844 L 9.667969 15.765625 L 10.972656 16.804688 L 11.058594 18.109375 "/>
<path style=" stroke:none;fill-rule:evenodd;fill:rgb(96.862745%,89.411765%,80.392158%);fill-opacity:1;" d="M 12.621094 12.636719 C 12.621094 12.636719 14.097656 4.996094 21.566406 3.519531 C 27.714844 2.304688 30.945312 3.78125 32.160156 5.167969 C 32.160156 5.167969 26.691406 -1.34375 21.480469 0.652344 C 16.269531 2.652344 12.445312 6.296875 12.535156 8.644531 C 12.683594 12.636719 12.621094 12.636719 12.621094 12.636719 "/>
<path style=" stroke:none;fill-rule:evenodd;fill:rgb(96.862745%,89.411765%,80.392158%);fill-opacity:1;" d="M 32.769531 6.039062 C 32.769531 6.039062 30.25 5.949219 30.164062 8.207031 C 30.164062 8.207031 30.164062 8.554688 30.335938 8.902344 C 30.335938 8.902344 32.335938 6.644531 33.550781 7.859375 "/>
<path style=" stroke:none;fill-rule:evenodd;fill:rgb(96.862745%,89.411765%,80.392158%);fill-opacity:1;" d="M 21.742188 9.136719 C 21.742188 9.136719 21.308594 5.671875 18.351562 7.6875 C 16.441406 8.988281 16.617188 10.8125 16.964844 11.160156 C 17.308594 11.507812 17.214844 12.207031 17.480469 11.726562 C 17.746094 11.246094 17.65625 9.683594 18.613281 9.25 C 19.570312 8.816406 21.132812 8.332031 21.742188 9.136719 "/>
<path style=" stroke:none;fill-rule:evenodd;fill:rgb(28.627452%,44.705883%,54.509807%);fill-opacity:1;" d="M 13.574219 32.613281 L 5.414062 36.257812 C 5.414062 36.257812 8.800781 49.71875 7.0625 53.890625 L 5.847656 53.453125 L 5.761719 48.332031 L 3.503906 38.605469 L 2.546875 35.914062 L 11.058594 30.179688 L 13.574219 32.613281 "/>
<path style=" stroke:none;fill-rule:evenodd;fill:rgb(20%,31.37255%,38.039216%);fill-opacity:1;" d="M 28.6875 46.59375 L 33.550781 46.332031 C 33.550781 46.332031 35.546875 41.296875 35.546875 41.035156 C 35.546875 40.777344 37.285156 33.742188 37.285156 33.742188 L 33.375 29.660156 L 32.59375 28.964844 L 30.511719 31.050781 L 30.511719 39.125 L 28.6875 46.59375 "/>
<path style=" stroke:none;fill-rule:evenodd;fill:rgb(28.627452%,44.705883%,54.509807%);fill-opacity:1;" d="M 30.945312 30.789062 L 37.023438 35.304688 L 37.199219 33.21875 L 32.59375 28.964844 L 30.945312 30.789062 "/>
<path style=" stroke:none;fill-rule:nonzero;fill:rgb(100%,100%,100%);fill-opacity:1;" d="M 28.488281 45.898438 L 26.578125 41.035156 L 24.578125 38.171875 C 24.578125 38.171875 25.015625 36.953125 25.621094 36.953125 C 26.230469 36.953125 27.621094 36.953125 27.621094 36.953125 L 29.53125 37.648438 L 29.355469 40.863281 L 28.488281 45.898438 "/>
<path style=" stroke:none;fill-rule:evenodd;fill:rgb(86.274511%,85.09804%,84.705883%);fill-opacity:1;" d="M 28.859375 44.25 C 28.859375 44.25 26.429688 39.558594 26.429688 38.863281 C 26.429688 38.863281 26.863281 37.824219 27.472656 38.082031 C 28.078125 38.34375 29.382812 39.039062 29.382812 39.039062 L 29.382812 37.386719 L 26.429688 36.78125 L 24.433594 37.039062 L 27.820312 45.03125 L 28.511719 45.117188 "/>
<path style=" stroke:none;fill-rule:nonzero;fill:rgb(100%,100%,100%);fill-opacity:1;" d="M 18.238281 32.785156 L 15.835938 32.523438 L 13.574219 31.832031 L 13.574219 32.613281 L 14.679688 33.828125 L 18.152344 35.390625 "/>
<path style=" stroke:none;fill-rule:evenodd;fill:rgb(86.274511%,85.09804%,84.705883%);fill-opacity:1;" d="M 14.359375 33.046875 C 14.359375 33.046875 17.050781 34.175781 17.917969 33.914062 L 18.003906 34.957031 L 15.574219 34.4375 L 14.097656 33.394531 L 14.359375 33.046875 "/>
<path style=" stroke:none;fill-rule:evenodd;fill:rgb(82.745099%,21.960784%,20%);fill-opacity:1;" d="M 31.953125 37.25 C 30.480469 37.207031 29.148438 37.03125 27.980469 36.703125 C 28.0625 36.226562 27.914062 35.757812 28.03125 35.414062 C 28.355469 35.179688 28.902344 35.183594 29.390625 35.128906 C 28.96875 34.917969 28.371094 34.835938 27.882812 34.957031 C 27.871094 34.625 27.71875 34.417969 27.628906 34.160156 C 28.460938 33.863281 30.414062 31.925781 31.515625 32.566406 C 32.039062 32.871094 32.261719 34.617188 32.300781 35.464844 C 32.335938 36.167969 32.238281 36.878906 31.953125 37.25 "/>
<path style="fill:none;stroke-width:2;stroke-linecap:butt;stroke-linejoin:miter;stroke:rgb(82.745099%,21.960784%,20%);stroke-opacity:1;stroke-miterlimit:4;" d="M 115.03125 9.9 C 109.729687 10.054688 104.934375 10.6875 100.729687 11.86875 C 101.025 13.584375 100.490625 15.271875 100.9125 16.509375 C 102.079687 17.353125 104.048437 17.339063 105.80625 17.535938 C 104.2875 18.295313 102.135937 18.590625 100.378125 18.154688 C 100.335937 19.35 99.7875 20.095313 99.464062 21.023438 C 102.459375 22.092188 109.490625 29.067188 113.45625 26.760938 C 115.340625 25.664063 116.142187 19.378125 116.282812 16.326563 C 116.409375 13.795313 116.057812 11.235938 115.03125 9.9 Z M 115.03125 9.9 " transform="matrix(0.277778,0,0,-0.277778,0,40)"/>
<path style=" stroke:none;fill-rule:evenodd;fill:rgb(82.745099%,21.960784%,20%);fill-opacity:1;" d="M 24.90625 34.84375 C 24.902344 34.953125 24.898438 35.066406 24.890625 35.179688 C 24.433594 35.480469 23.691406 35.476562 23.183594 35.730469 C 23.929688 35.761719 24.515625 35.941406 25.023438 36.195312 C 25.011719 36.476562 25 36.757812 24.988281 37.039062 C 24.144531 37.613281 23.375 38.476562 22.382812 39.015625 C 21.914062 39.273438 20.265625 39.929688 19.765625 39.816406 C 19.484375 39.75 19.457031 39.398438 19.34375 39.066406 C 19.105469 38.359375 18.550781 37.234375 18.5 36.167969 C 18.441406 34.820312 18.304688 32.566406 19.753906 32.84375 C 20.925781 33.066406 22.285156 33.605469 23.191406 34.101562 C 23.746094 34.402344 24.066406 34.777344 24.90625 34.84375 "/>
<path style="fill:none;stroke-width:2;stroke-linecap:butt;stroke-linejoin:miter;stroke:rgb(82.745099%,21.960784%,20%);stroke-opacity:1;stroke-miterlimit:4;" d="M 89.6625 18.5625 C 89.648437 18.16875 89.634375 17.760938 89.60625 17.353125 C 87.960937 16.270313 85.289062 16.284375 83.460937 15.370313 C 86.146875 15.257812 88.25625 14.610938 90.084375 13.696875 C 90.042187 12.684375 90 11.671875 89.957812 10.659375 C 86.920312 8.592188 84.15 5.484375 80.578125 3.54375 C 78.890625 2.615625 72.95625 0.253125 71.15625 0.660938 C 70.14375 0.9 70.045312 2.165625 69.6375 3.360938 C 68.779687 5.90625 66.782812 9.95625 66.6 13.795313 C 66.389062 18.646875 65.896875 26.760938 71.114062 25.7625 C 75.332812 24.960938 80.226562 23.020313 83.489062 21.234375 C 85.485937 20.151563 86.639062 18.801563 89.6625 18.5625 Z M 89.6625 18.5625 " transform="matrix(0.277778,0,0,-0.277778,0,40)"/>
<path style=" stroke:none;fill-rule:evenodd;fill:rgb(82.745099%,21.960784%,20%);fill-opacity:1;" d="M 25.742188 36.449219 C 25.613281 35.714844 25.464844 35.503906 25.523438 34.867188 C 27.480469 33.5625 27.847656 37.105469 25.742188 36.449219 "/>
<path style="fill:none;stroke-width:2;stroke-linecap:butt;stroke-linejoin:miter;stroke:rgb(82.745099%,21.960784%,20%);stroke-opacity:1;stroke-miterlimit:4;" d="M 92.671875 12.782813 C 92.207812 15.426563 91.673437 16.185938 91.884375 18.478125 C 98.929687 23.175 100.251562 10.420313 92.671875 12.782813 Z M 92.671875 12.782813 " transform="matrix(0.277778,0,0,-0.277778,0,40)"/>
<path style=" stroke:none;fill-rule:evenodd;fill:rgb(93.725491%,23.921569%,22.745098%);fill-opacity:1;" d="M 28.574219 37.042969 C 28.574219 37.042969 27.964844 36.171875 28.402344 35.914062 C 28.835938 35.652344 29.269531 35.914062 29.53125 35.480469 C 29.789062 35.042969 29.53125 34.785156 29.617188 34.261719 C 29.703125 33.742188 30.136719 33.65625 30.570312 33.566406 C 31.007812 33.480469 32.222656 33.308594 32.394531 33.742188 L 31.875 32.179688 L 30.832031 31.832031 L 27.53125 33.742188 L 27.359375 34.695312 L 27.359375 36.609375 "/>
<path style=" stroke:none;fill-rule:evenodd;fill:rgb(93.725491%,23.921569%,22.745098%);fill-opacity:1;" d="M 19.457031 39.90625 C 19.351562 38.550781 19.242188 37.199219 19.117188 35.84375 C 18.933594 33.824219 19.605469 34.175781 21.355469 34.175781 C 21.625 34.175781 23.003906 34.496094 23.101562 34.695312 C 23.578125 35.664062 22.3125 35.449219 23.648438 36.179688 C 24.777344 36.792969 26.773438 35.804688 26.316406 34.4375 C 26.0625 34.132812 24.984375 34.34375 24.601562 34.140625 C 23.921875 33.789062 23.242188 33.4375 22.566406 33.085938 C 21.703125 32.640625 19.707031 31.984375 18.785156 32.613281 C 16.453125 34.199219 18.933594 38.160156 19.765625 39.816406 "/>
<path style=" stroke:none;fill-rule:evenodd;fill:rgb(13.725491%,12.156863%,12.54902%);fill-opacity:1;" d="M 21.742188 9.136719 C 19.375 8.585938 18.199219 10.128906 17.480469 11.726562 C 16.839844 11.574219 17.09375 10.703125 17.257812 10.257812 C 17.679688 9.09375 19.386719 7.542969 20.78125 7.75 C 21.382812 7.84375 22.195312 8.390625 21.742188 9.136719 "/>
<path style=" stroke:none;fill-rule:evenodd;fill:rgb(13.725491%,12.156863%,12.54902%);fill-opacity:1;" d="M 33.273438 11.832031 C 33.3125 11.835938 33.347656 11.835938 33.386719 11.839844 C 33.921875 12.949219 34.382812 14.125 35.058594 15.109375 C 34.605469 16.160156 31.636719 17.09375 31.683594 15.203125 C 32.324219 14.921875 33.433594 15.144531 34.003906 14.785156 C 33.671875 13.882812 33.199219 13.113281 33.273438 11.832031 "/>
<path style=" stroke:none;fill-rule:evenodd;fill:rgb(13.725491%,12.156863%,12.54902%);fill-opacity:1;" d="M 22.953125 11.863281 C 23.460938 12.792969 23.625 13.769531 24.347656 14.472656 C 24.671875 14.789062 25.304688 15.175781 24.992188 16.058594 C 24.917969 16.265625 24.382812 16.726562 24.074219 16.816406 C 22.945312 17.152344 20.316406 16.886719 21.207031 15.480469 C 22.140625 15.523438 23.394531 16.085938 24.089844 15.410156 C 23.554688 14.554688 22.601562 12.859375 22.953125 11.863281 "/>
<path style=" stroke:none;fill-rule:evenodd;fill:rgb(13.725491%,12.156863%,12.54902%);fill-opacity:1;" d="M 32.851562 21.320312 C 31.152344 22.410156 29.257812 23.597656 26.476562 23.320312 C 25.882812 22.804688 25.65625 21.652344 26.234375 20.894531 C 26.535156 21.410156 26.34375 22.363281 27.183594 22.503906 C 28.761719 22.773438 30.597656 21.539062 31.734375 21.105469 C 32.4375 19.917969 31.671875 19.484375 31.039062 18.71875 C 29.742188 17.152344 28 15.210938 28.0625 12.867188 C 28.585938 12.488281 28.632812 13.449219 28.707031 13.625 C 29.386719 15.210938 31.09375 17.242188 32.335938 18.601562 C 32.644531 18.933594 33.148438 19.253906 33.203125 19.476562 C 33.363281 20.121094 32.78125 20.890625 32.851562 21.320312 "/>
<path style=" stroke:none;fill-rule:evenodd;fill:rgb(13.725491%,12.156863%,12.54902%);fill-opacity:1;" d="M 10.464844 20.171875 C 9.929688 19.867188 9.804688 18.527344 9.179688 18.492188 C 8.285156 18.4375 8.449219 20.226562 8.453125 21.273438 C 7.839844 20.714844 7.730469 18.996094 8.179688 18.113281 C 7.667969 17.863281 7.4375 18.394531 7.152344 18.582031 C 7.519531 15.914062 11.050781 17.34375 10.464844 20.171875 "/>
<path style=" stroke:none;fill-rule:evenodd;fill:rgb(13.725491%,12.156863%,12.54902%);fill-opacity:1;" d="M 33.933594 22.429688 C 33.140625 23.933594 32.023438 25.589844 29.703125 25.636719 C 29.65625 25.152344 29.621094 24.414062 29.707031 24.121094 C 31.480469 23.949219 32.574219 23.046875 33.933594 22.429688 "/>
<path style=" stroke:none;fill-rule:evenodd;fill:rgb(13.725491%,12.156863%,12.54902%);fill-opacity:1;" d="M 22.820312 23.402344 C 24.296875 24.183594 27.015625 24.265625 29.027344 24.207031 C 29.136719 24.648438 29.132812 25.191406 29.136719 25.730469 C 26.554688 25.859375 23.496094 25.21875 22.820312 23.402344 "/>
<path style=" stroke:none;fill-rule:evenodd;fill:rgb(13.725491%,12.156863%,12.54902%);fill-opacity:1;" d="M 22.539062 24.855469 C 23.5625 27.421875 27.078125 27.128906 30.042969 27.058594 C 29.910156 27.390625 29.628906 27.785156 29.277344 27.925781 C 28.328125 28.3125 25.707031 28.605469 24.386719 27.90625 C 23.550781 27.460938 23.011719 26.457031 22.554688 25.867188 C 22.332031 25.582031 21.230469 24.855469 22.539062 24.855469 "/>
<path style=" stroke:none;fill-rule:evenodd;fill:rgb(50.588238%,69.01961%,76.862746%);fill-opacity:1;" d="M 32.726562 39.023438 C 31.527344 41.078125 30.378906 43.191406 28.953125 45.003906 C 29.550781 43.25 29.804688 40.3125 29.894531 38.070312 C 31.144531 37.484375 32.214844 38.203125 32.726562 39.023438 "/>
<path style=" stroke:none;fill-rule:evenodd;fill:rgb(94.117647%,83.92157%,71.764708%);fill-opacity:1;" d="M 28.425781 32.503906 C 27.808594 32.90625 27.28125 33.410156 26.6875 33.84375 C 25.371094 33.90625 24.652344 33.75 23.683594 32.996094 C 23.699219 32.933594 23.796875 32.960938 23.800781 32.886719 C 25.210938 33.515625 27.003906 32.632812 28.425781 32.503906 "/>
<path style=" stroke:none;fill-rule:evenodd;fill:rgb(50.588238%,69.01961%,76.862746%);fill-opacity:1;" d="M 21.027344 42.113281 C 21.414062 40.433594 22.929688 39.566406 24.308594 38.640625 C 25.730469 40.445312 26.597656 42.765625 27.546875 45.007812 C 25.296875 44.328125 23 43.226562 21.027344 42.113281 "/>
<path style=" stroke:none;fill-rule:evenodd;fill:rgb(13.725491%,12.156863%,12.54902%);fill-opacity:1;" d="M 28.941406 55.519531 C 28.882812 56.890625 29.074219 59.089844 29.140625 60.53125 C 30.050781 60.53125 30.441406 60.328125 31.125 60.101562 C 31.199219 58.40625 30.585938 56.839844 30.410156 55.292969 C 30.050781 55.199219 29.386719 55.546875 28.941406 55.519531 Z M 14.738281 47.714844 C 15.339844 53.246094 16.210938 57.894531 17.808594 62.789062 C 21.355469 63.867188 25.628906 63.960938 28.761719 62.988281 C 28.1875 60.222656 28.4375 56.859375 28.101562 53.910156 C 27.847656 51.695312 27.980469 49.464844 27.632812 47.203125 C 23.832031 46.414062 18.464844 47.019531 14.738281 47.714844 Z M 28.527344 47.238281 C 28.496094 49.613281 28.636719 51.953125 28.816406 54.332031 C 29.730469 54.195312 30.347656 54.105469 31.195312 53.917969 C 30.917969 51.628906 30.953125 49.054688 30.394531 47.027344 C 29.746094 47.035156 29.175781 47.019531 28.527344 47.238281 Z M 33.15625 46.855469 C 32.722656 46.753906 32.21875 46.851562 31.804688 46.859375 C 32 48.792969 32.472656 50.929688 32.636719 52.960938 C 33.289062 52.984375 33.636719 52.675781 34.171875 52.574219 C 34.199219 50.789062 34.015625 48.332031 33.15625 46.855469 Z M 40.160156 53.253906 C 41.515625 52.925781 42.367188 51.265625 41.988281 49.558594 C 41.734375 48.410156 41.28125 46.253906 40.796875 45.519531 C 40.4375 44.976562 39.464844 44.265625 38.6875 44.765625 C 37.425781 45.574219 35.203125 45.808594 34.28125 46.785156 C 34.742188 48.324219 34.886719 50.433594 35.078125 52.382812 C 36.652344 52.480469 38.59375 51.949219 39.90625 52.511719 C 38.992188 52.808594 37.800781 52.8125 37.011719 53.246094 C 37.65625 53.558594 39.171875 53.492188 40.160156 53.253906 Z M 27.546875 45.007812 C 26.597656 42.765625 25.730469 40.445312 24.308594 38.640625 C 22.929688 39.566406 21.414062 40.433594 21.027344 42.113281 C 23 43.226562 25.296875 44.328125 27.546875 45.007812 Z M 29.894531 38.070312 C 29.804688 40.3125 29.550781 43.25 28.953125 45.003906 C 30.378906 43.191406 31.527344 41.078125 32.726562 39.023438 C 32.214844 38.203125 31.144531 37.484375 29.894531 38.070312 Z M 27.234375 37.125 C 26.695312 37.066406 26.238281 37.746094 25.535156 37.453125 C 25.375 37.628906 25.230469 37.820312 25.066406 37.996094 C 26.613281 39.863281 27.320312 42.511719 28.515625 44.707031 C 29.15625 42.597656 29.082031 40.289062 29.226562 37.988281 C 28.34375 38.042969 27.851562 37.191406 27.234375 37.125 Z M 25.523438 34.867188 C 25.464844 35.503906 25.613281 35.714844 25.742188 36.449219 C 27.847656 37.105469 27.480469 33.5625 25.523438 34.867188 Z M 23.191406 34.101562 C 22.285156 33.605469 20.925781 33.066406 19.753906 32.84375 C 18.304688 32.566406 18.441406 34.820312 18.5 36.167969 C 18.550781 37.234375 19.105469 38.359375 19.34375 39.066406 C 19.457031 39.398438 19.484375 39.75 19.765625 39.816406 C 20.265625 39.929688 21.914062 39.273438 22.382812 39.015625 C 23.375 38.476562 24.144531 37.613281 24.988281 37.039062 C 25 36.757812 25.011719 36.476562 25.023438 36.195312 C 24.515625 35.941406 23.929688 35.761719 23.183594 35.730469 C 23.691406 35.476562 24.433594 35.480469 24.890625 35.179688 C 24.898438 35.066406 24.902344 34.953125 24.90625 34.84375 C 24.066406 34.777344 23.746094 34.402344 23.191406 34.101562 Z M 14.539062 32.527344 C 13.785156 33.292969 16.648438 34.332031 17.558594 34.386719 C 17.554688 33.90625 17.832031 33.449219 17.777344 33.105469 C 16.695312 32.914062 15.273438 33.039062 14.539062 32.527344 Z M 23.800781 32.886719 C 23.796875 32.960938 23.699219 32.933594 23.683594 32.996094 C 24.652344 33.75 25.371094 33.90625 26.6875 33.84375 C 27.28125 33.410156 27.808594 32.90625 28.425781 32.503906 C 27.003906 32.632812 25.210938 33.515625 23.800781 32.886719 Z M 32.300781 35.464844 C 32.261719 34.617188 32.039062 32.871094 31.515625 32.566406 C 30.414062 31.925781 28.460938 33.863281 27.628906 34.160156 C 27.71875 34.417969 27.871094 34.625 27.882812 34.957031 C 28.371094 34.835938 28.96875 34.917969 29.390625 35.128906 C 28.902344 35.183594 28.355469 35.179688 28.03125 35.414062 C 27.914062 35.757812 28.0625 36.226562 27.980469 36.703125 C 29.148438 37.03125 30.480469 37.207031 31.953125 37.25 C 32.238281 36.878906 32.335938 36.167969 32.300781 35.464844 Z M 13.273438 33.265625 C 13.035156 33.097656 11.4375 31.019531 11.21875 31.105469 C 8.328125 32.246094 5.628906 34.21875 3.210938 36.082031 C 5.515625 41.023438 6.445312 47.074219 6.609375 52.910156 C 9.246094 54.144531 11.5625 55.921875 15.144531 56.109375 C 14.726562 53.175781 14.351562 50.5625 14.117188 47.804688 C 13.214844 47.425781 11.925781 47.820312 11.085938 47.6875 C 11.078125 46.671875 12.371094 47.242188 12.476562 46.558594 C 12.558594 46.042969 11.765625 46.003906 12.023438 45.191406 C 12.683594 45.433594 13.027344 45.960938 13.730469 46.160156 C 14.371094 44.753906 13.71875 42.273438 13.8125 41.101562 C 13.828125 40.882812 13.921875 39.882812 14.414062 40.058594 C 14.851562 40.210938 14.390625 42.714844 14.4375 43.824219 C 14.480469 44.847656 14.316406 45.835938 14.730469 46.476562 C 18.1875 46.007812 21.703125 45.703125 25.445312 45.601562 C 24.621094 45.246094 23.644531 44.914062 22.570312 44.308594 C 21.988281 43.980469 20.15625 43.296875 19.988281 42.746094 C 19.722656 41.867188 20.691406 41.398438 20.859375 40.644531 C 19.113281 41.597656 18.769531 39.730469 18.359375 38.410156 C 17.984375 37.214844 17.769531 36.320312 17.679688 35.628906 C 16.175781 34.914062 14.566406 34.1875 13.273438 33.265625 Z M 30.773438 31.359375 C 33.183594 30.191406 33.617188 35.722656 32.671875 37.503906 C 32.820312 38.035156 33.320312 38.238281 33.527344 38.71875 C 32.183594 41.125 30.6875 43.371094 29.316406 45.75 C 30.339844 45.117188 31.796875 45.636719 32.996094 45.160156 C 33.433594 44.988281 33.75 43.984375 34.082031 43.179688 C 34.996094 40.96875 35.957031 38.183594 36.382812 36.074219 C 36.480469 35.59375 36.742188 34.546875 36.683594 34.117188 C 36.578125 33.351562 35.539062 32.785156 35.011719 32.308594 C 34.035156 31.433594 33.421875 30.664062 32.40625 29.847656 C 31.996094 30.453125 31.113281 30.863281 30.773438 31.359375 Z M 7.765625 10.003906 C 6.617188 11.265625 6.859375 13.628906 6.996094 15.3125 C 9.070312 14.007812 11.824219 15.417969 11.796875 17.636719 C 12.789062 17.609375 12.167969 16.398438 11.988281 15.621094 C 11.402344 13.074219 12.976562 10.304688 12.058594 7.976562 C 10.285156 8.109375 8.824219 8.835938 7.765625 10.003906 Z M 15.976562 2.675781 C 13.378906 3.410156 10.046875 5.296875 8.980469 7.632812 C 9.808594 7.511719 10.382812 7.09375 11.195312 7.042969 C 11.503906 7.023438 11.910156 7.171875 12.261719 7.085938 C 12.96875 6.910156 13.566406 5.328125 14.097656 4.738281 C 14.617188 4.164062 15.238281 3.917969 15.667969 3.394531 C 15.941406 3.261719 16.347656 3.269531 16.363281 2.859375 C 16.242188 2.730469 16.117188 2.632812 15.976562 2.675781 Z M 29.5 3.367188 C 26.800781 1.847656 22.238281 0.703125 19.371094 2.132812 C 17.054688 3.285156 13.925781 5.195312 12.859375 7.613281 C 13.855469 9.949219 12.566406 12.085938 12.484375 14.457031 C 12.441406 15.71875 13.078125 16.820312 13.125 18.195312 C 12.785156 18.753906 11.742188 18.824219 11.023438 18.785156 C 10.78125 17.570312 10.355469 16.207031 9.105469 16.070312 C 7.335938 15.875 6.039062 17.339844 5.960938 18.871094 C 5.863281 20.671875 7.34375 23.65625 9.4375 23.449219 C 10.246094 23.367188 10.445312 22.558594 11.328125 22.566406 C 11.804688 23.519531 10.589844 23.816406 10.464844 24.5 C 10.433594 24.675781 10.566406 25.363281 10.640625 25.6875 C 11.023438 27.257812 11.871094 29.292969 12.707031 30.488281 C 13.765625 32.007812 15.847656 32.234375 18.085938 32.386719 C 18.484375 31.523438 19.960938 31.59375 20.917969 31.820312 C 19.769531 31.363281 18.699219 30.257812 17.8125 29.28125 C 16.792969 28.160156 15.761719 26.957031 15.710938 25.488281 C 17.636719 28.160156 19.226562 30.492188 22.722656 31.664062 C 25.371094 32.554688 28.464844 31.257812 30.496094 29.828125 C 31.339844 29.234375 31.84375 28.292969 32.445312 27.429688 C 34.691406 24.203125 35.738281 19.59375 35.507812 15.125 C 35.414062 13.28125 35.417969 11.445312 34.800781 10.207031 C 34.152344 8.910156 31.96875 7.75 30.6875 8.921875 C 30.449219 7.664062 31.75 6.882812 33.28125 7.335938 C 32.191406 5.929688 31.046875 4.242188 29.5 3.367188 Z M 34.523438 44.941406 C 36.628906 43.890625 40.566406 42.121094 41.886719 44.945312 C 42.375 45.984375 42.945312 47.742188 43.199219 48.816406 C 43.554688 50.332031 42.8125 53.519531 41.253906 54.027344 C 39.878906 54.476562 38.273438 54.449219 36.613281 54.117188 C 36.421875 53.953125 36.203125 53.671875 36.050781 53.375 C 34.867188 53.328125 33.757812 53.4375 32.824219 53.925781 C 32.914062 54.800781 32.320312 54.941406 31.765625 55.121094 C 31.355469 56.753906 32.589844 58.882812 32.292969 60.371094 C 32.082031 61.429688 30.78125 61.59375 29.820312 61.792969 C 29.789062 62.382812 29.863281 62.871094 29.929688 63.371094 C 29.710938 64.179688 28.726562 64.636719 27.796875 64.75 C 24.730469 65.117188 20.082031 65.285156 17.132812 64.222656 C 16.3125 62.207031 15.664062 59.753906 14.976562 57.449219 C 12.105469 57.757812 9.78125 56.210938 7.589844 55.199219 C 6.828125 54.847656 5.78125 54.652344 5.496094 54.046875 C 5.222656 53.464844 5.335938 52.34375 5.265625 51.285156 C 5.09375 48.582031 4.945312 45.972656 4.230469 43.203125 C 3.910156 41.960938 3.351562 40.867188 2.960938 39.667969 C 2.601562 38.558594 1.972656 37.1875 1.808594 36.082031 C 1.5625 34.445312 3.109375 34.351562 4.09375 33.640625 C 5.621094 32.542969 6.820312 31.9375 8.472656 30.945312 C 8.960938 30.648438 10.4375 29.90625 10.605469 29.566406 C 10.9375 28.886719 10.03125 27.929688 9.789062 27.398438 C 9.40625 26.554688 9.207031 25.839844 9.152344 25.011719 C 7.765625 24.792969 6.714844 23.96875 6.078125 23.035156 C 5.027344 21.496094 4.300781 18.648438 5.210938 16.480469 C 5.28125 16.308594 5.636719 15.976562 5.6875 15.710938 C 5.792969 15.195312 5.492188 14.511719 5.476562 13.960938 C 5.378906 11.144531 5.953125 8.71875 7.847656 7.867188 C 8.617188 4.804688 11.371094 3.785156 13.96875 2.257812 C 14.9375 1.691406 16.007812 1.324219 17.113281 0.917969 C 21.074219 -0.539062 27.152344 -0.265625 30.441406 2.222656 C 31.835938 3.277344 34.066406 5.503906 34.863281 7.117188 C 36.96875 11.375 36.820312 18.488281 35.347656 23.664062 C 35.148438 24.359375 34.859375 25.382812 34.460938 26.214844 C 34.179688 26.800781 33.3125 27.964844 33.417969 28.480469 C 33.523438 29.011719 35.398438 30.433594 35.800781 30.820312 C 36.523438 31.519531 37.894531 32.445312 38.007812 33.324219 C 38.125 34.261719 37.59375 35.542969 37.324219 36.445312 C 36.421875 39.464844 35.542969 42.25 34.523438 44.941406 "/>
<path style=" stroke:none;fill-rule:evenodd;fill:rgb(96.862745%,89.411765%,80.392158%);fill-opacity:1;" d="M 20.464844 24.0625 C 20.578125 23.910156 21.207031 23.679688 22.085938 24.101562 C 22.085938 24.101562 21.042969 24.273438 21.132812 26.011719 L 20.699219 25.925781 C 20.699219 25.925781 20.25 24.351562 20.464844 24.0625 "/>
<path style=" stroke:none;fill-rule:evenodd;fill:rgb(11.372549%,9.803922%,9.803922%);fill-opacity:1;" d="M 28.078125 38.996094 C 28.078125 39.257812 27.867188 39.472656 27.601562 39.472656 C 27.339844 39.472656 27.125 39.257812 27.125 38.996094 C 27.125 38.730469 27.339844 38.515625 27.601562 38.515625 C 27.867188 38.515625 28.078125 38.730469 28.078125 38.996094 "/>
</g>
</svg>
