<?xml version="1.0" encoding="UTF-8"?>
<svg xmlns="http://www.w3.org/2000/svg" xmlns:xlink="http://www.w3.org/1999/xlink" width="16px" height="16px" viewBox="0 0 16 16" version="1.1">
<g id="surface1">
<path style=" stroke:none;fill-rule:evenodd;fill:rgb(94.117647%,83.92157%,71.764708%);fill-opacity:1;" d="M 11.996094 12.59375 L 10.605469 12.800781 L 8.730469 13.011719 L 7.515625 13.042969 L 6.332031 13.011719 L 5.429688 12.730469 L 4.632812 11.863281 L 4.007812 10.09375 L 3.867188 9.710938 L 3.035156 9.433594 L 2.546875 8.632812 L 2.199219 7.488281 L 2.582031 6.480469 L 3.484375 6.167969 L 4.214844 6.515625 L 4.5625 7.277344 L 4.980469 7.207031 L 5.117188 7.035156 L 4.980469 6.234375 L 4.945312 5.230469 L 5.152344 3.839844 L 5.144531 3.046875 L 5.777344 2.03125 L 6.890625 1.234375 L 8.835938 0.398438 L 10.988281 0.710938 L 12.863281 2.066406 L 13.734375 3.457031 L 14.289062 4.464844 L 14.425781 6.964844 L 14.011719 9.121094 L 13.246094 11.03125 L 12.515625 12.039062 "/>
<path style=" stroke:none;fill-rule:evenodd;fill:rgb(20%,31.37255%,38.039216%);fill-opacity:1;" d="M 10.816406 18.601562 L 5.847656 18.8125 L 5.847656 19.644531 L 6.265625 22.5625 L 6.054688 22.804688 L 2.582031 21.625 L 2.339844 21.207031 L 1.992188 17.28125 L 1.191406 14.921875 L 1.019531 14.363281 L 3.796875 12.453125 L 4.667969 12.105469 L 5.429688 13.042969 L 6.089844 13.636719 L 6.855469 13.878906 L 7.203125 13.984375 L 7.617188 15.789062 L 7.929688 16.171875 L 8.730469 15.894531 L 8.175781 16.96875 L 11.195312 18.394531 L 10.816406 18.601562 "/>
<path style=" stroke:none;fill-rule:evenodd;fill:rgb(42.745098%,41.960785%,42.745098%);fill-opacity:1;" d="M 2.582031 6.480469 L 3.484375 6.167969 L 4.214844 6.515625 L 4.5625 7.277344 L 4.980469 7.207031 L 5.082031 6.792969 L 4.875 5.992188 L 5.082031 4.082031 L 4.910156 3.039062 L 5.535156 2.3125 L 6.890625 1.234375 L 6.507812 0.710938 L 4.597656 1.652344 L 3.796875 2.277344 L 3.347656 3.25 L 2.652344 4.1875 L 2.441406 5.296875 L 2.582031 6.480469 "/>
<path style=" stroke:none;fill-rule:evenodd;fill:rgb(86.274511%,85.09804%,84.705883%);fill-opacity:1;" d="M 4.007812 3.214844 C 4.007812 3.214844 4.527344 1.929688 6.613281 1.304688 C 8.695312 0.679688 6.714844 0.851562 6.714844 0.851562 L 4.457031 1.71875 L 3.589844 2.589844 L 3.207031 3.285156 L 4.007812 3.214844 "/>
<path style=" stroke:none;fill-rule:evenodd;fill:rgb(86.274511%,85.09804%,84.705883%);fill-opacity:1;" d="M 2.964844 6.234375 C 2.964844 6.234375 2.234375 3.804688 5.011719 3.457031 L 4.910156 3.039062 L 3 3.492188 L 2.441406 5.296875 L 2.582031 6.480469 L 2.964844 6.234375 "/>
<path style=" stroke:none;fill-rule:evenodd;fill:rgb(96.862745%,89.411765%,80.392158%);fill-opacity:1;" d="M 4.074219 9.464844 L 4.53125 9.027344 C 4.53125 9.027344 4.734375 9.050781 4.769531 9.292969 C 4.804688 9.535156 4.910156 11.726562 6.402344 12.90625 C 6.539062 13.015625 5.292969 12.730469 5.292969 12.730469 L 4.179688 10.996094 "/>
<path style=" stroke:none;fill-rule:evenodd;fill:rgb(96.862745%,89.411765%,80.392158%);fill-opacity:1;" d="M 10.46875 8.808594 C 10.46875 8.808594 10.546875 7.753906 10.832031 7.835938 C 11.117188 7.914062 11.117188 8.199219 11.117188 8.199219 C 11.117188 8.199219 10.425781 8.644531 10.46875 8.808594 "/>
<path style=" stroke:none;fill-rule:nonzero;fill:rgb(96.862745%,89.411765%,80.392158%);fill-opacity:1;" d="M 13.351562 4.949219 C 13.351562 4.949219 12.777344 5.070312 12.726562 5.574219 C 12.671875 6.082031 13.351562 5.679688 13.453125 5.644531 "/>
<path style=" stroke:none;fill-rule:nonzero;fill:rgb(96.862745%,89.411765%,80.392158%);fill-opacity:1;" d="M 9.148438 4.984375 C 9.148438 4.984375 8.382812 5.089844 8.382812 5.574219 C 8.382812 6.0625 9.25 6.027344 9.496094 5.820312 "/>
<path style=" stroke:none;fill-rule:evenodd;fill:rgb(96.862745%,89.411765%,80.392158%);fill-opacity:1;" d="M 4.421875 7.242188 C 4.421875 7.242188 3.101562 6.445312 2.964844 7.207031 C 2.824219 7.972656 2.511719 8.527344 3.171875 9.328125 L 2.722656 9.1875 L 2.304688 8.113281 L 2.164062 7.070312 L 2.964844 6.234375 L 3.867188 6.304688 L 4.386719 6.722656 L 4.421875 7.242188 "/>
<path style=" stroke:none;fill-rule:evenodd;fill:rgb(96.862745%,89.411765%,80.392158%);fill-opacity:1;" d="M 5.046875 5.054688 C 5.046875 5.054688 5.640625 2 8.625 1.40625 C 11.085938 0.921875 12.378906 1.511719 12.863281 2.066406 C 12.863281 2.066406 10.675781 -0.539062 8.589844 0.261719 C 6.507812 1.058594 4.980469 2.519531 5.011719 3.457031 C 5.074219 5.054688 5.046875 5.054688 5.046875 5.054688 "/>
<path style=" stroke:none;fill-rule:evenodd;fill:rgb(96.862745%,89.411765%,80.392158%);fill-opacity:1;" d="M 13.109375 2.414062 C 13.109375 2.414062 12.101562 2.378906 12.066406 3.285156 C 12.066406 3.285156 12.066406 3.421875 12.136719 3.5625 C 12.136719 3.5625 12.933594 2.65625 13.421875 3.144531 "/>
<path style=" stroke:none;fill-rule:evenodd;fill:rgb(96.862745%,89.411765%,80.392158%);fill-opacity:1;" d="M 8.695312 3.65625 C 8.695312 3.65625 8.523438 2.269531 7.339844 3.074219 C 6.578125 3.597656 6.644531 4.324219 6.785156 4.464844 C 6.925781 4.605469 6.886719 4.882812 6.992188 4.691406 C 7.097656 4.5 7.0625 3.875 7.445312 3.699219 C 7.828125 3.527344 8.453125 3.332031 8.695312 3.65625 "/>
<path style=" stroke:none;fill-rule:evenodd;fill:rgb(28.627452%,44.705883%,54.509807%);fill-opacity:1;" d="M 5.429688 13.042969 L 2.164062 14.503906 C 2.164062 14.503906 3.519531 19.886719 2.824219 21.554688 L 2.339844 21.382812 L 2.304688 19.332031 L 1.402344 15.441406 L 1.019531 14.363281 L 4.421875 12.070312 L 5.429688 13.042969 "/>
<path style=" stroke:none;fill-rule:evenodd;fill:rgb(20%,31.37255%,38.039216%);fill-opacity:1;" d="M 11.476562 18.636719 L 13.421875 18.535156 C 13.421875 18.535156 14.21875 16.519531 14.21875 16.414062 C 14.21875 16.308594 14.914062 13.496094 14.914062 13.496094 L 13.351562 11.863281 L 13.039062 11.585938 L 12.203125 12.417969 L 12.203125 15.648438 L 11.476562 18.636719 "/>
<path style=" stroke:none;fill-rule:evenodd;fill:rgb(28.627452%,44.705883%,54.509807%);fill-opacity:1;" d="M 12.378906 12.316406 L 14.808594 14.121094 L 14.878906 13.289062 L 13.039062 11.585938 L 12.378906 12.316406 "/>
<path style=" stroke:none;fill-rule:nonzero;fill:rgb(100%,100%,100%);fill-opacity:1;" d="M 11.394531 18.359375 L 10.632812 16.414062 L 9.832031 15.269531 C 9.832031 15.269531 10.003906 14.78125 10.25 14.78125 C 10.492188 14.78125 11.046875 14.78125 11.046875 14.78125 L 11.8125 15.058594 L 11.742188 16.34375 L 11.394531 18.359375 "/>
<path style=" stroke:none;fill-rule:evenodd;fill:rgb(86.274511%,85.09804%,84.705883%);fill-opacity:1;" d="M 11.542969 17.699219 C 11.542969 17.699219 10.570312 15.824219 10.570312 15.546875 C 10.570312 15.546875 10.746094 15.128906 10.988281 15.234375 C 11.230469 15.335938 11.753906 15.617188 11.753906 15.617188 L 11.753906 14.957031 L 10.570312 14.710938 L 9.773438 14.816406 L 11.128906 18.011719 L 11.40625 18.046875 "/>
<path style=" stroke:none;fill-rule:nonzero;fill:rgb(100%,100%,100%);fill-opacity:1;" d="M 7.296875 13.113281 L 6.332031 13.011719 L 5.429688 12.730469 L 5.429688 13.042969 L 5.871094 13.53125 L 7.261719 14.15625 "/>
<path style=" stroke:none;fill-rule:evenodd;fill:rgb(86.274511%,85.09804%,84.705883%);fill-opacity:1;" d="M 5.742188 13.21875 C 5.742188 13.21875 6.820312 13.671875 7.167969 13.566406 L 7.203125 13.984375 L 6.230469 13.773438 L 5.640625 13.359375 L 5.742188 13.21875 "/>
<path style=" stroke:none;fill-rule:evenodd;fill:rgb(82.745099%,21.960784%,20%);fill-opacity:1;" d="M 12.78125 14.898438 C 12.191406 14.882812 11.660156 14.8125 11.191406 14.679688 C 11.222656 14.492188 11.164062 14.300781 11.210938 14.164062 C 11.34375 14.070312 11.558594 14.074219 11.757812 14.050781 C 11.585938 13.96875 11.347656 13.933594 11.152344 13.984375 C 11.148438 13.851562 11.089844 13.769531 11.050781 13.664062 C 11.382812 13.546875 12.164062 12.769531 12.605469 13.027344 C 12.816406 13.148438 12.90625 13.847656 12.921875 14.1875 C 12.933594 14.46875 12.894531 14.75 12.78125 14.898438 "/>
<path style="fill:none;stroke-width:2;stroke-linecap:butt;stroke-linejoin:miter;stroke:rgb(82.745099%,21.960784%,20%);stroke-opacity:1;stroke-miterlimit:4;" d="M 115.03125 9.914062 C 109.722656 10.054688 104.941406 10.6875 100.722656 11.882812 C 101.003906 13.570312 100.476562 15.292969 100.898438 16.523438 C 102.09375 17.367188 104.027344 17.332031 105.820312 17.542969 C 104.273438 18.28125 102.128906 18.597656 100.371094 18.140625 C 100.335938 19.335938 99.808594 20.074219 99.457031 21.023438 C 102.445312 22.078125 109.476562 29.074219 113.449219 26.753906 C 115.347656 25.664062 116.15625 19.371094 116.296875 16.3125 C 116.402344 13.78125 116.050781 11.25 115.03125 9.914062 Z M 115.03125 9.914062 " transform="matrix(0.111111,0,0,-0.111111,0,16)"/>
<path style=" stroke:none;fill-rule:evenodd;fill:rgb(82.745099%,21.960784%,20%);fill-opacity:1;" d="M 9.960938 13.9375 C 9.960938 13.980469 9.957031 14.027344 9.957031 14.070312 C 9.773438 14.191406 9.476562 14.191406 9.273438 14.292969 C 9.570312 14.304688 9.804688 14.378906 10.007812 14.476562 C 10.003906 14.589844 10 14.703125 9.996094 14.816406 C 9.660156 15.046875 9.351562 15.390625 8.953125 15.605469 C 8.765625 15.707031 8.105469 15.972656 7.90625 15.925781 C 7.792969 15.898438 7.78125 15.757812 7.738281 15.628906 C 7.640625 15.34375 7.421875 14.894531 7.402344 14.46875 C 7.375 13.929688 7.320312 13.027344 7.902344 13.136719 C 8.371094 13.226562 8.914062 13.441406 9.277344 13.640625 C 9.5 13.761719 9.625 13.910156 9.960938 13.9375 "/>
<path style="fill:none;stroke-width:2;stroke-linecap:butt;stroke-linejoin:miter;stroke:rgb(82.745099%,21.960784%,20%);stroke-opacity:1;stroke-miterlimit:4;" d="M 89.648438 18.5625 C 89.648438 18.175781 89.613281 17.753906 89.613281 17.367188 C 87.960938 16.277344 85.289062 16.277344 83.460938 15.363281 C 86.132812 15.257812 88.242188 14.589844 90.070312 13.710938 C 90.035156 12.691406 90 11.671875 89.964844 10.652344 C 86.941406 8.578125 84.164062 5.484375 80.578125 3.550781 C 78.890625 2.636719 72.949219 0.246094 71.15625 0.667969 C 70.136719 0.914062 70.03125 2.179688 69.644531 3.339844 C 68.765625 5.90625 66.796875 9.949219 66.621094 13.78125 C 66.375 18.632812 65.882812 26.753906 71.121094 25.769531 C 75.339844 24.960938 80.226562 23.027344 83.496094 21.234375 C 85.5 20.144531 86.625 18.808594 89.648438 18.5625 Z M 89.648438 18.5625 " transform="matrix(0.111111,0,0,-0.111111,0,16)"/>
<path style=" stroke:none;fill-rule:evenodd;fill:rgb(82.745099%,21.960784%,20%);fill-opacity:1;" d="M 10.296875 14.578125 C 10.246094 14.285156 10.1875 14.203125 10.210938 13.945312 C 10.992188 13.425781 11.136719 14.84375 10.296875 14.578125 "/>
<path style="fill:none;stroke-width:2;stroke-linecap:butt;stroke-linejoin:miter;stroke:rgb(82.745099%,21.960784%,20%);stroke-opacity:1;stroke-miterlimit:4;" d="M 92.671875 12.796875 C 92.214844 15.433594 91.6875 16.171875 91.898438 18.492188 C 98.929688 23.167969 100.230469 10.40625 92.671875 12.796875 Z M 92.671875 12.796875 " transform="matrix(0.111111,0,0,-0.111111,0,16)"/>
<path style=" stroke:none;fill-rule:evenodd;fill:rgb(93.725491%,23.921569%,22.745098%);fill-opacity:1;" d="M 11.429688 14.816406 C 11.429688 14.816406 11.1875 14.46875 11.359375 14.363281 C 11.535156 14.261719 11.707031 14.367188 11.8125 14.191406 C 11.917969 14.019531 11.8125 13.914062 11.847656 13.707031 C 11.882812 13.496094 12.054688 13.460938 12.230469 13.425781 C 12.402344 13.390625 12.890625 13.324219 12.957031 13.496094 L 12.75 12.871094 L 12.332031 12.734375 L 11.011719 13.496094 L 10.945312 13.878906 L 10.945312 14.644531 "/>
<path style=" stroke:none;fill-rule:evenodd;fill:rgb(93.725491%,23.921569%,22.745098%);fill-opacity:1;" d="M 7.78125 15.964844 C 7.742188 15.421875 7.695312 14.878906 7.648438 14.339844 C 7.574219 13.53125 7.839844 13.671875 8.542969 13.671875 C 8.648438 13.671875 9.203125 13.796875 9.242188 13.878906 C 9.429688 14.265625 8.925781 14.179688 9.460938 14.472656 C 9.910156 14.71875 10.710938 14.320312 10.527344 13.773438 C 10.425781 13.652344 9.996094 13.738281 9.839844 13.65625 C 9.570312 13.515625 9.296875 13.375 9.027344 13.234375 C 8.679688 13.054688 7.882812 12.792969 7.515625 13.042969 C 6.582031 13.679688 7.574219 15.265625 7.90625 15.925781 "/>
<path style=" stroke:none;fill-rule:evenodd;fill:rgb(13.725491%,12.156863%,12.54902%);fill-opacity:1;" d="M 8.695312 3.65625 C 7.75 3.433594 7.277344 4.050781 6.992188 4.691406 C 6.734375 4.628906 6.835938 4.28125 6.902344 4.101562 C 7.070312 3.636719 7.753906 3.015625 8.3125 3.101562 C 8.554688 3.136719 8.878906 3.355469 8.695312 3.65625 "/>
<path style=" stroke:none;fill-rule:evenodd;fill:rgb(13.725491%,12.156863%,12.54902%);fill-opacity:1;" d="M 13.308594 4.734375 C 13.324219 4.734375 13.339844 4.734375 13.355469 4.734375 C 13.570312 5.179688 13.753906 5.652344 14.023438 6.042969 C 13.84375 6.464844 12.65625 6.835938 12.671875 6.082031 C 12.929688 5.96875 13.375 6.058594 13.601562 5.914062 C 13.46875 5.550781 13.28125 5.246094 13.308594 4.734375 "/>
<path style=" stroke:none;fill-rule:evenodd;fill:rgb(13.725491%,12.156863%,12.54902%);fill-opacity:1;" d="M 9.179688 4.746094 C 9.382812 5.117188 9.449219 5.507812 9.738281 5.789062 C 9.867188 5.917969 10.121094 6.070312 9.996094 6.421875 C 9.96875 6.503906 9.753906 6.691406 9.628906 6.726562 C 9.179688 6.859375 8.128906 6.753906 8.484375 6.191406 C 8.855469 6.210938 9.359375 6.433594 9.636719 6.164062 C 9.421875 5.820312 9.039062 5.144531 9.179688 4.746094 "/>
<path style=" stroke:none;fill-rule:evenodd;fill:rgb(13.725491%,12.156863%,12.54902%);fill-opacity:1;" d="M 13.140625 8.527344 C 12.460938 8.964844 11.703125 9.4375 10.589844 9.328125 C 10.351562 9.121094 10.261719 8.660156 10.492188 8.359375 C 10.613281 8.5625 10.539062 8.945312 10.871094 9 C 11.503906 9.109375 12.238281 8.617188 12.695312 8.441406 C 12.976562 7.96875 12.667969 7.792969 12.414062 7.488281 C 11.894531 6.859375 11.199219 6.085938 11.226562 5.148438 C 11.433594 4.996094 11.453125 5.378906 11.484375 5.449219 C 11.753906 6.085938 12.4375 6.898438 12.933594 7.441406 C 13.058594 7.574219 13.257812 7.703125 13.28125 7.789062 C 13.347656 8.046875 13.113281 8.355469 13.140625 8.527344 "/>
<path style=" stroke:none;fill-rule:evenodd;fill:rgb(13.725491%,12.156863%,12.54902%);fill-opacity:1;" d="M 4.183594 8.066406 C 3.972656 7.945312 3.921875 7.410156 3.671875 7.394531 C 3.316406 7.375 3.378906 8.089844 3.382812 8.507812 C 3.136719 8.285156 3.09375 7.597656 3.273438 7.246094 C 3.066406 7.144531 2.976562 7.355469 2.859375 7.433594 C 3.007812 6.367188 4.421875 6.9375 4.183594 8.066406 "/>
<path style=" stroke:none;fill-rule:evenodd;fill:rgb(13.725491%,12.156863%,12.54902%);fill-opacity:1;" d="M 13.574219 8.972656 C 13.257812 9.574219 12.808594 10.234375 11.882812 10.253906 C 11.863281 10.0625 11.847656 9.765625 11.882812 9.648438 C 12.589844 9.578125 13.03125 9.21875 13.574219 8.972656 "/>
<path style=" stroke:none;fill-rule:evenodd;fill:rgb(13.725491%,12.156863%,12.54902%);fill-opacity:1;" d="M 9.128906 9.363281 C 9.71875 9.671875 10.808594 9.707031 11.609375 9.683594 C 11.65625 9.859375 11.652344 10.078125 11.65625 10.292969 C 10.621094 10.34375 9.398438 10.085938 9.128906 9.363281 "/>
<path style=" stroke:none;fill-rule:evenodd;fill:rgb(13.725491%,12.156863%,12.54902%);fill-opacity:1;" d="M 9.015625 9.941406 C 9.425781 10.96875 10.832031 10.851562 12.015625 10.824219 C 11.964844 10.957031 11.851562 11.113281 11.710938 11.171875 C 11.332031 11.324219 10.28125 11.441406 9.753906 11.164062 C 9.421875 10.984375 9.207031 10.582031 9.023438 10.347656 C 8.933594 10.234375 8.492188 9.941406 9.015625 9.941406 "/>
<path style=" stroke:none;fill-rule:evenodd;fill:rgb(50.588238%,69.01961%,76.862746%);fill-opacity:1;" d="M 13.089844 15.609375 C 12.609375 16.433594 12.152344 17.277344 11.582031 18.003906 C 11.820312 17.300781 11.921875 16.125 11.957031 15.226562 C 12.457031 14.996094 12.886719 15.28125 13.089844 15.609375 "/>
<path style=" stroke:none;fill-rule:evenodd;fill:rgb(94.117647%,83.92157%,71.764708%);fill-opacity:1;" d="M 11.371094 13 C 11.121094 13.164062 10.914062 13.363281 10.675781 13.535156 C 10.148438 13.5625 9.859375 13.5 9.472656 13.199219 C 9.480469 13.171875 9.519531 13.183594 9.519531 13.15625 C 10.085938 13.40625 10.800781 13.050781 11.371094 13 "/>
<path style=" stroke:none;fill-rule:evenodd;fill:rgb(50.588238%,69.01961%,76.862746%);fill-opacity:1;" d="M 8.410156 16.84375 C 8.566406 16.171875 9.171875 15.824219 9.722656 15.457031 C 10.292969 16.179688 10.636719 17.105469 11.019531 18.003906 C 10.121094 17.730469 9.199219 17.292969 8.410156 16.84375 "/>
<path style=" stroke:none;fill-rule:evenodd;fill:rgb(13.725491%,12.156863%,12.54902%);fill-opacity:1;" d="M 11.574219 22.207031 C 11.554688 22.757812 11.628906 23.636719 11.65625 24.210938 C 12.019531 24.210938 12.175781 24.132812 12.449219 24.039062 C 12.480469 23.363281 12.234375 22.734375 12.164062 22.117188 C 12.019531 22.078125 11.753906 22.21875 11.574219 22.207031 Z M 5.894531 19.085938 C 6.136719 21.296875 6.484375 23.15625 7.121094 25.117188 C 8.542969 25.546875 10.25 25.582031 11.503906 25.195312 C 11.273438 24.089844 11.375 22.742188 11.242188 21.5625 C 11.140625 20.679688 11.191406 19.785156 11.050781 18.882812 C 9.53125 18.566406 7.386719 18.808594 5.894531 19.085938 Z M 11.410156 18.894531 C 11.398438 19.84375 11.453125 20.78125 11.527344 21.734375 C 11.890625 21.679688 12.140625 21.640625 12.476562 21.566406 C 12.367188 20.652344 12.382812 19.621094 12.15625 18.8125 C 11.898438 18.8125 11.671875 18.808594 11.410156 18.894531 Z M 13.261719 18.742188 C 13.089844 18.703125 12.886719 18.742188 12.722656 18.742188 C 12.800781 19.519531 12.988281 20.371094 13.054688 21.183594 C 13.316406 21.191406 13.453125 21.070312 13.667969 21.027344 C 13.679688 20.316406 13.605469 19.332031 13.261719 18.742188 Z M 16.0625 21.300781 C 16.605469 21.167969 16.945312 20.503906 16.796875 19.824219 C 16.695312 19.363281 16.511719 18.5 16.316406 18.207031 C 16.175781 17.992188 15.785156 17.707031 15.476562 17.90625 C 14.96875 18.230469 14.082031 18.324219 13.710938 18.714844 C 13.898438 19.328125 13.953125 20.175781 14.03125 20.953125 C 14.660156 20.992188 15.4375 20.78125 15.960938 21.003906 C 15.597656 21.125 15.121094 21.125 14.804688 21.296875 C 15.0625 21.421875 15.667969 21.398438 16.0625 21.300781 Z M 11.019531 18.003906 C 10.636719 17.105469 10.292969 16.179688 9.722656 15.457031 C 9.171875 15.824219 8.566406 16.171875 8.410156 16.84375 C 9.199219 17.292969 10.121094 17.730469 11.019531 18.003906 Z M 11.957031 15.226562 C 11.921875 16.125 11.820312 17.300781 11.582031 18.003906 C 12.152344 17.277344 12.609375 16.433594 13.089844 15.609375 C 12.886719 15.28125 12.457031 14.996094 11.957031 15.226562 Z M 10.894531 14.851562 C 10.679688 14.828125 10.496094 15.097656 10.214844 14.980469 C 10.148438 15.050781 10.089844 15.128906 10.027344 15.199219 C 10.644531 15.945312 10.925781 17.003906 11.40625 17.882812 C 11.664062 17.039062 11.632812 16.117188 11.691406 15.195312 C 11.335938 15.21875 11.140625 14.875 10.894531 14.851562 Z M 10.210938 13.945312 C 10.1875 14.203125 10.246094 14.285156 10.296875 14.578125 C 11.136719 14.84375 10.992188 13.425781 10.210938 13.945312 Z M 9.277344 13.640625 C 8.914062 13.441406 8.371094 13.226562 7.902344 13.136719 C 7.320312 13.027344 7.375 13.929688 7.402344 14.46875 C 7.421875 14.894531 7.640625 15.34375 7.738281 15.628906 C 7.78125 15.757812 7.792969 15.898438 7.90625 15.925781 C 8.105469 15.972656 8.765625 15.707031 8.953125 15.605469 C 9.351562 15.390625 9.660156 15.046875 9.996094 14.816406 C 10 14.703125 10.003906 14.589844 10.007812 14.476562 C 9.804688 14.378906 9.570312 14.304688 9.273438 14.292969 C 9.476562 14.191406 9.773438 14.191406 9.957031 14.070312 C 9.957031 14.027344 9.960938 13.980469 9.960938 13.9375 C 9.625 13.910156 9.5 13.761719 9.277344 13.640625 Z M 5.816406 13.011719 C 5.515625 13.316406 6.660156 13.734375 7.023438 13.753906 C 7.019531 13.5625 7.132812 13.378906 7.109375 13.242188 C 6.679688 13.164062 6.109375 13.214844 5.816406 13.011719 Z M 9.519531 13.15625 C 9.519531 13.183594 9.480469 13.171875 9.472656 13.199219 C 9.859375 13.5 10.148438 13.5625 10.675781 13.535156 C 10.914062 13.363281 11.121094 13.164062 11.371094 13 C 10.800781 13.050781 10.085938 13.40625 9.519531 13.15625 Z M 12.921875 14.1875 C 12.90625 13.847656 12.816406 13.148438 12.605469 13.027344 C 12.164062 12.769531 11.382812 13.546875 11.050781 13.664062 C 11.089844 13.769531 11.148438 13.851562 11.152344 13.984375 C 11.347656 13.933594 11.585938 13.96875 11.757812 14.050781 C 11.558594 14.074219 11.34375 14.070312 11.210938 14.164062 C 11.164062 14.300781 11.222656 14.492188 11.191406 14.679688 C 11.660156 14.8125 12.191406 14.882812 12.78125 14.898438 C 12.894531 14.75 12.933594 14.46875 12.921875 14.1875 Z M 5.308594 13.308594 C 5.214844 13.238281 4.574219 12.40625 4.488281 12.441406 C 3.332031 12.898438 2.25 13.6875 1.285156 14.433594 C 2.207031 16.410156 2.578125 18.832031 2.644531 21.164062 C 3.699219 21.65625 4.625 22.367188 6.058594 22.441406 C 5.890625 21.269531 5.738281 20.226562 5.644531 19.121094 C 5.285156 18.96875 4.769531 19.128906 4.433594 19.074219 C 4.429688 18.667969 4.949219 18.898438 4.992188 18.625 C 5.023438 18.417969 4.707031 18.402344 4.808594 18.078125 C 5.074219 18.171875 5.210938 18.382812 5.492188 18.464844 C 5.75 17.902344 5.488281 16.910156 5.523438 16.441406 C 5.53125 16.351562 5.570312 15.953125 5.765625 16.023438 C 5.941406 16.085938 5.757812 17.085938 5.773438 17.53125 C 5.792969 17.9375 5.726562 18.335938 5.890625 18.589844 C 7.273438 18.402344 8.679688 18.28125 10.179688 18.238281 C 9.847656 18.097656 9.457031 17.964844 9.027344 17.722656 C 8.796875 17.59375 8.0625 17.320312 7.996094 17.097656 C 7.890625 16.746094 8.277344 16.558594 8.34375 16.257812 C 7.644531 16.636719 7.507812 15.890625 7.34375 15.363281 C 7.195312 14.886719 7.109375 14.527344 7.070312 14.25 C 6.46875 13.964844 5.828125 13.675781 5.308594 13.308594 Z M 12.308594 12.542969 C 13.273438 12.074219 13.445312 14.289062 13.070312 15 C 13.128906 15.214844 13.328125 15.296875 13.410156 15.488281 C 12.871094 16.449219 12.277344 17.347656 11.726562 18.300781 C 12.136719 18.046875 12.71875 18.253906 13.199219 18.066406 C 13.375 17.996094 13.5 17.59375 13.632812 17.273438 C 14 16.386719 14.382812 15.273438 14.554688 14.429688 C 14.59375 14.238281 14.695312 13.816406 14.671875 13.648438 C 14.632812 13.339844 14.214844 13.113281 14.003906 12.925781 C 13.613281 12.574219 13.371094 12.265625 12.964844 11.9375 C 12.796875 12.183594 12.445312 12.34375 12.308594 12.542969 Z M 3.105469 4 C 2.648438 4.507812 2.742188 5.453125 2.796875 6.125 C 3.628906 5.605469 4.730469 6.167969 4.71875 7.054688 C 5.117188 7.042969 4.867188 6.558594 4.796875 6.246094 C 4.5625 5.230469 5.191406 4.121094 4.824219 3.191406 C 4.113281 3.246094 3.53125 3.535156 3.105469 4 Z M 6.390625 1.070312 C 5.351562 1.363281 4.019531 2.121094 3.59375 3.054688 C 3.921875 3.003906 4.152344 2.839844 4.480469 2.816406 C 4.601562 2.808594 4.761719 2.867188 4.90625 2.832031 C 5.1875 2.765625 5.425781 2.128906 5.640625 1.894531 C 5.847656 1.664062 6.097656 1.566406 6.265625 1.355469 C 6.375 1.304688 6.539062 1.308594 6.542969 1.144531 C 6.496094 1.09375 6.445312 1.054688 6.390625 1.070312 Z M 11.800781 1.347656 C 10.722656 0.738281 8.894531 0.28125 7.746094 0.851562 C 6.824219 1.3125 5.570312 2.078125 5.144531 3.046875 C 5.542969 3.980469 5.027344 4.835938 4.992188 5.785156 C 4.976562 6.289062 5.230469 6.726562 5.25 7.277344 C 5.113281 7.503906 4.699219 7.53125 4.410156 7.515625 C 4.3125 7.027344 4.140625 6.484375 3.640625 6.429688 C 2.933594 6.351562 2.417969 6.9375 2.382812 7.546875 C 2.347656 8.269531 2.9375 9.460938 3.773438 9.378906 C 4.097656 9.347656 4.179688 9.023438 4.53125 9.027344 C 4.722656 9.40625 4.234375 9.527344 4.1875 9.800781 C 4.171875 9.871094 4.226562 10.144531 4.257812 10.273438 C 4.410156 10.902344 4.75 11.71875 5.082031 12.195312 C 5.507812 12.804688 6.339844 12.894531 7.234375 12.953125 C 7.394531 12.609375 7.984375 12.636719 8.367188 12.726562 C 7.90625 12.546875 7.480469 12.105469 7.125 11.710938 C 6.71875 11.265625 6.304688 10.78125 6.285156 10.195312 C 7.054688 11.265625 7.691406 12.195312 9.089844 12.664062 C 10.148438 13.019531 11.386719 12.503906 12.199219 11.933594 C 12.535156 11.695312 12.738281 11.316406 12.976562 10.972656 C 13.875 9.679688 14.296875 7.835938 14.203125 6.050781 C 14.164062 5.3125 14.167969 4.578125 13.917969 4.082031 C 13.660156 3.5625 12.785156 3.101562 12.273438 3.570312 C 12.179688 3.066406 12.699219 2.753906 13.3125 2.933594 C 12.875 2.371094 12.417969 1.695312 11.800781 1.347656 Z M 13.808594 17.976562 C 14.652344 17.558594 16.226562 16.847656 16.753906 17.976562 C 16.949219 18.394531 17.179688 19.097656 17.277344 19.527344 C 17.421875 20.132812 17.125 21.40625 16.5 21.609375 C 15.949219 21.789062 15.308594 21.78125 14.644531 21.644531 C 14.566406 21.582031 14.480469 21.46875 14.421875 21.351562 C 13.945312 21.332031 13.503906 21.375 13.128906 21.570312 C 13.164062 21.921875 12.929688 21.976562 12.707031 22.046875 C 12.542969 22.699219 13.035156 23.554688 12.917969 24.148438 C 12.832031 24.570312 12.3125 24.636719 11.929688 24.71875 C 11.914062 24.953125 11.945312 25.148438 11.972656 25.347656 C 11.882812 25.671875 11.492188 25.855469 11.117188 25.898438 C 9.894531 26.046875 8.03125 26.113281 6.851562 25.691406 C 6.523438 24.882812 6.265625 23.902344 5.992188 22.980469 C 4.839844 23.101562 3.910156 22.484375 3.035156 22.078125 C 2.730469 21.9375 2.3125 21.859375 2.199219 21.621094 C 2.089844 21.386719 2.132812 20.9375 2.105469 20.515625 C 2.035156 19.433594 1.976562 18.390625 1.691406 17.28125 C 1.5625 16.785156 1.339844 16.347656 1.183594 15.867188 C 1.039062 15.425781 0.789062 14.875 0.722656 14.433594 C 0.625 13.777344 1.242188 13.742188 1.636719 13.457031 C 2.25 13.015625 2.726562 12.773438 3.386719 12.378906 C 3.585938 12.261719 4.175781 11.960938 4.242188 11.824219 C 4.375 11.554688 4.011719 11.171875 3.914062 10.957031 C 3.761719 10.621094 3.683594 10.335938 3.660156 10.003906 C 3.105469 9.917969 2.6875 9.585938 2.429688 9.214844 C 2.011719 8.597656 1.71875 7.460938 2.082031 6.59375 C 2.113281 6.523438 2.253906 6.390625 2.273438 6.285156 C 2.316406 6.078125 2.199219 5.804688 2.191406 5.585938 C 2.152344 4.457031 2.378906 3.488281 3.140625 3.148438 C 3.445312 1.921875 4.550781 1.511719 5.585938 0.902344 C 5.976562 0.675781 6.402344 0.53125 6.84375 0.367188 C 8.429688 -0.214844 10.863281 -0.105469 12.175781 0.890625 C 12.734375 1.3125 13.625 2.203125 13.945312 2.847656 C 14.789062 4.550781 14.726562 7.394531 14.136719 9.464844 C 14.058594 9.742188 13.945312 10.152344 13.785156 10.488281 C 13.671875 10.71875 13.324219 11.1875 13.367188 11.390625 C 13.410156 11.605469 14.160156 12.175781 14.320312 12.328125 C 14.609375 12.609375 15.160156 12.976562 15.203125 13.328125 C 15.25 13.703125 15.039062 14.21875 14.929688 14.578125 C 14.570312 15.785156 14.21875 16.898438 13.808594 17.976562 "/>
<path style=" stroke:none;fill-rule:evenodd;fill:rgb(96.862745%,89.411765%,80.392158%);fill-opacity:1;" d="M 8.1875 9.625 C 8.230469 9.5625 8.484375 9.472656 8.835938 9.640625 C 8.835938 9.640625 8.417969 9.710938 8.453125 10.40625 L 8.277344 10.371094 C 8.277344 10.371094 8.097656 9.738281 8.1875 9.625 "/>
<path style=" stroke:none;fill-rule:evenodd;fill:rgb(11.372549%,9.803922%,9.803922%);fill-opacity:1;" d="M 11.230469 15.597656 C 11.230469 15.703125 11.144531 15.789062 11.039062 15.789062 C 10.933594 15.789062 10.847656 15.703125 10.847656 15.597656 C 10.847656 15.492188 10.933594 15.40625 11.039062 15.40625 C 11.144531 15.40625 11.230469 15.492188 11.230469 15.597656 "/>
</g>
</svg>
